<svg width="25" height="26" viewBox="0 0 25 26" fill="none" xmlns="http://www.w3.org/2000/svg">
<path d="M11.7923 13C14.8878 13 17.3972 10.5376 17.3972 7.5C17.3972 4.46243 14.8878 2 11.7923 2C8.69679 2 6.18738 4.46243 6.18738 7.5C6.18738 10.5376 8.69679 13 11.7923 13Z" stroke="white" stroke-width="3"/>
<path d="M17.3961 24.0002H4.24246C3.92453 24.0003 3.61022 23.934 3.32039 23.8057C3.03056 23.6775 2.77184 23.4902 2.5614 23.2564C2.35096 23.0225 2.19362 22.7474 2.09981 22.4493C2.00601 22.1512 1.97788 21.837 2.0173 21.5274L2.45449 18.091C2.55616 17.2926 2.95155 16.5582 3.56632 16.0259C4.18108 15.4935 4.97287 15.1999 5.79278 15.2002H6.18625" stroke="white" stroke-width="3" stroke-linecap="round" stroke-linejoin="round"/>
<path d="M19.6371 14.0996V20.6996" stroke="white" stroke-width="3" stroke-linecap="round" stroke-linejoin="round"/>
<path d="M16.2738 17.3994H22.9997" stroke="white" stroke-width="3" stroke-linecap="round" stroke-linejoin="round"/>
</svg>
