<svg width="25" height="25" viewBox="0 0 25 25" fill="none" xmlns="http://www.w3.org/2000/svg">
<path fill-rule="evenodd" clip-rule="evenodd" d="M3 0C1.34315 0 0 1.34315 0 3V22C0 23.6569 1.34315 25 3 25H22C23.6569 25 25 23.6569 25 22V3C25 1.34315 23.6569 0 22 0H3ZM19.0166 9.81066C19.6024 9.22487 19.6024 8.27513 19.0166 7.68934C18.4308 7.10355 17.4811 7.10355 16.8953 7.68934L10.456 14.1287L8.10754 11.7802C7.52175 11.1945 6.572 11.1945 5.98621 11.7802C5.40043 12.366 5.40043 13.3158 5.98621 13.9016L9.39531 17.3107C9.67661 17.592 10.0581 17.75 10.456 17.75C10.8538 17.75 11.2353 17.592 11.5166 17.3107L19.0166 9.81066Z" fill="#061A3A"/>
</svg>
