<svg width="27" height="26" viewBox="0 0 27 26" fill="none" xmlns="http://www.w3.org/2000/svg">
<path fill-rule="evenodd" clip-rule="evenodd" d="M4.03125 0C1.82211 0 0.03125 1.79086 0.03125 4V22C0.03125 24.2091 1.82211 26 4.03125 26H22.0312C24.2404 26 26.0312 24.2091 26.0312 22V4C26.0312 1.79086 24.2404 0 22.0312 0H4.03125ZM16.9379 13.5921C17.3709 13.6929 17.7072 14.0309 17.7699 14.4644L18.0945 16.7017C18.2088 17.4895 17.6269 18.2 16.819 18.2H9.24346C8.43496 18.2 7.85373 17.4895 7.96802 16.7017L8.29259 14.4644C8.35529 14.0309 8.69162 13.6936 9.1246 13.5921C10.8076 13.1996 11.2294 12.235 11.3006 11.1651C11.5991 11.1098 12.13 11.05 13.0313 11.05C13.9325 11.05 14.4634 11.1098 14.7619 11.1651C14.8331 12.235 15.255 13.1996 16.9379 13.5921ZM11.3816 14.9448C11.3816 15.8418 12.1202 16.5698 13.0313 16.5698C13.9416 16.5698 14.6809 15.8418 14.6809 14.9448C14.6809 14.0478 13.9423 13.3198 13.0313 13.3198C12.1202 13.3198 11.3816 14.0478 11.3816 14.9448ZM13.0313 7.8C17.0202 7.80065 19.5136 9.425 19.5293 10.4C19.5443 11.375 19.5149 12.6438 17.8738 12.4325C16.0602 12.1987 16.0644 11.5905 16.0706 10.7201C16.0709 10.6687 16.0713 10.6164 16.0713 10.5632C16.0706 9.89755 14.5091 9.737 13.0313 9.737C11.5534 9.737 9.99122 9.89755 9.99122 10.5632C9.99122 10.6164 9.99159 10.6687 9.99195 10.7201C9.99807 11.5905 10.0023 12.1987 8.18876 12.4325C6.54694 12.6438 6.51821 11.375 6.53323 10.4C6.54825 9.425 9.04166 7.80065 13.0313 7.8Z" fill="white"/>
</svg>
