<svg width="27" height="26" viewBox="0 0 27 26" fill="none" xmlns="http://www.w3.org/2000/svg">
<path fill-rule="evenodd" clip-rule="evenodd" d="M4.03125 0C1.82211 0 0.03125 1.79086 0.03125 4V22C0.03125 24.2091 1.82211 26 4.03125 26H22.0312C24.2404 26 26.0312 24.2091 26.0312 22V4C26.0312 1.79086 24.2404 0 22.0312 0H4.03125ZM12.8328 13.9618L6.78906 10.7603V16.322L6.7919 16.4283C6.81856 16.9072 7.02412 17.3575 7.36642 17.6869C7.70871 18.0163 8.16178 18.1998 8.6327 18.1998H17.4254L17.5298 18.1969C18 18.1698 18.4421 17.9604 18.7655 17.6118C19.0889 17.2631 19.2691 16.8017 19.2691 16.322V10.7609L13.2253 13.9618C13.1647 13.9939 13.0974 14.0107 13.0291 14.0107C12.9607 14.0107 12.8934 13.9939 12.8328 13.9618ZM17.4254 7.7998H8.6327L8.52832 7.80269C8.05816 7.82985 7.61603 8.03922 7.29261 8.38785C6.9692 8.73648 6.78903 9.19795 6.78906 9.67758V9.78389L13.0291 13.0888L19.2691 9.78389V9.67758L19.2662 9.57127C19.2396 9.09241 19.034 8.64208 18.6917 8.31268C18.3494 7.98328 17.8963 7.79977 17.4254 7.7998Z" fill="white"/>
</svg>
