<svg width="26" height="26" viewBox="0 0 26 26" fill="none" xmlns="http://www.w3.org/2000/svg">
<path fill-rule="evenodd" clip-rule="evenodd" d="M4 0C1.79086 0 0 1.79086 0 4V22C0 24.2091 1.79086 26 4 26H22C24.2091 26 26 24.2091 26 22V4C26 1.79086 24.2091 0 22 0H4ZM9.87612 8.5979C10.7047 7.75536 11.8282 7.28141 13 7.28C14.1718 7.28141 15.2953 7.75536 16.1239 8.5979C16.9525 9.44044 17.4186 10.5828 17.42 11.7743C17.4214 12.7476 17.1087 13.6944 16.53 14.4696L16.5296 14.4709C16.5296 14.4709 16.4086 14.6318 16.3909 14.6535L13 18.72L9.61067 14.6555C9.59098 14.6322 9.47043 14.4709 9.47043 14.4709C8.89141 13.6953 8.5786 12.748 8.58 11.7743C8.58139 10.5828 9.04751 9.44044 9.87612 8.5979ZM12.107 13.1331C12.3714 13.3127 12.6821 13.4086 13 13.4086C13.4261 13.408 13.8346 13.2357 14.1359 12.9293C14.4372 12.6229 14.6067 12.2076 14.6073 11.7743C14.6073 11.4511 14.513 11.1351 14.3364 10.8663C14.1598 10.5976 13.9088 10.3881 13.6151 10.2644C13.3214 10.1407 12.9982 10.1083 12.6864 10.1714C12.3747 10.2345 12.0883 10.3901 11.8635 10.6187C11.6387 10.8472 11.4856 11.1384 11.4236 11.4555C11.3616 11.7725 11.3934 12.1011 11.5151 12.3997C11.6367 12.6983 11.8427 12.9536 12.107 13.1331Z" fill="white"/>
</svg>
