<svg width="26" height="26" viewBox="0 0 26 26" fill="none" xmlns="http://www.w3.org/2000/svg">
<path fill-rule="evenodd" clip-rule="evenodd" d="M4 0C1.79086 0 0 1.79086 0 4V22C0 24.2091 1.79086 26 4 26H22C24.2091 26 26 24.2091 26 22V4C26 1.79086 24.2091 0 22 0H4ZM13.8004 18.1998H11.8959V13.4548H10.2969V11.6088H11.8959V10.2438C11.8959 8.6643 12.8579 7.7998 14.2749 7.7998C14.9509 7.7998 15.5294 7.8518 15.6984 7.8713V9.5288H14.7169C13.9499 9.5288 13.8004 9.8928 13.8004 10.4258V11.6088H15.6334L15.3929 13.4548H13.8004V18.1998Z" fill="white"/>
</svg>
