<svg width="26" height="26" viewBox="0 0 26 26" fill="none" xmlns="http://www.w3.org/2000/svg">
<path fill-rule="evenodd" clip-rule="evenodd" d="M4 0C1.79086 0 0 1.79086 0 4V22C0 24.2091 1.79086 26 4 26H22C24.2091 26 26 24.2091 26 22V4C26 1.79086 24.2091 0 22 0H4ZM11.7695 11.1584C12.1337 10.9151 12.562 10.7852 13 10.7852C13.5872 10.7858 14.1502 11.0194 14.5654 11.4346C14.9806 11.8498 15.2142 12.4128 15.2148 13C15.2148 13.438 15.0849 13.8663 14.8416 14.2305C14.5982 14.5947 14.2523 14.8786 13.8476 15.0462C13.4429 15.2139 12.9975 15.2577 12.5679 15.1723C12.1383 15.0868 11.7436 14.8759 11.4339 14.5661C11.1241 14.2564 10.9132 13.8617 10.8277 13.4321C10.7423 13.0025 10.7861 12.5571 10.9538 12.1524C11.1214 11.7477 11.4053 11.4018 11.7695 11.1584ZM12.4115 13.8807C12.5857 13.9971 12.7905 14.0593 13 14.0593C13.2808 14.0589 13.5501 13.9472 13.7487 13.7487C13.9472 13.5501 14.0589 13.2808 14.0593 13C14.0593 12.7905 13.9971 12.5857 13.8807 12.4115C13.7643 12.2373 13.5989 12.1015 13.4054 12.0214C13.2118 11.9412 12.9988 11.9202 12.7933 11.9611C12.5879 12.002 12.3991 12.1029 12.251 12.251C12.1029 12.3991 12.002 12.5879 11.9611 12.7933C11.9202 12.9988 11.9412 13.2118 12.0214 13.4054C12.1015 13.5989 12.2373 13.7643 12.4115 13.8807ZM10.6889 7.8H15.3111C16.077 7.80087 16.8113 8.10551 17.3529 8.64709C17.8945 9.18868 18.1991 9.92297 18.2 10.6889V15.3111C18.1991 16.077 17.8945 16.8113 17.3529 17.3529C16.8113 17.8945 16.077 18.1991 15.3111 18.2H10.6889C9.92297 18.1991 9.18868 17.8945 8.64709 17.3529C8.10551 16.8113 7.80087 16.077 7.8 15.3111V10.6889C7.80087 9.92297 8.10551 9.18868 8.64709 8.64709C9.18868 8.10551 9.92297 7.80087 10.6889 7.8ZM16.5362 16.5362C16.8612 16.2112 17.0439 15.7707 17.0444 15.3111V10.6889C17.0439 10.2293 16.8612 9.78875 16.5362 9.4638C16.2112 9.13885 15.7707 8.95607 15.3111 8.95556H10.6889C10.2293 8.95607 9.78875 9.13885 9.4638 9.4638C9.13885 9.78875 8.95607 10.2293 8.95556 10.6889V15.3111C8.95607 15.7707 9.13885 16.2112 9.4638 16.5362C9.78875 16.8612 10.2293 17.0439 10.6889 17.0444H15.3111C15.7707 17.0439 16.2112 16.8612 16.5362 16.5362ZM16.1442 10.9243C16.2289 10.7976 16.2741 10.6487 16.2741 10.4963C16.2738 10.2921 16.1926 10.0962 16.0482 9.95182C15.9038 9.80739 15.7079 9.72616 15.5037 9.72593C15.3513 9.72593 15.2024 9.77111 15.0757 9.85576C14.949 9.94041 14.8503 10.0607 14.792 10.2015C14.7337 10.3423 14.7184 10.4972 14.7481 10.6466C14.7779 10.796 14.8512 10.9333 14.959 11.041C15.0667 11.1488 15.204 11.2221 15.3534 11.2519C15.5028 11.2816 15.6577 11.2663 15.7985 11.208C15.9393 11.1497 16.0596 11.051 16.1442 10.9243Z" fill="white"/>
</svg>
