<svg width="26" height="26" viewBox="0 0 26 26" fill="none" xmlns="http://www.w3.org/2000/svg">
<path fill-rule="evenodd" clip-rule="evenodd" d="M4 0C1.79086 0 0 1.79086 0 4V22C0 24.2091 1.79086 26 4 26H22C24.2091 26 26 24.2091 26 22V4C26 1.79086 24.2091 0 22 0H4ZM11.2667 18.2H13.5778V14.3C13.5677 14.1591 13.5862 14.0176 13.6321 13.8841C13.678 13.7505 13.7504 13.6276 13.845 13.5227C13.9396 13.4178 14.0544 13.3331 14.1825 13.2736C14.3107 13.2142 14.4495 13.1813 14.5907 13.1768C14.9061 13.1761 15.2112 13.2894 15.4497 13.4958C15.6883 13.7022 15.8442 13.9878 15.8889 14.3V18.2H18.2V14.0111C18.202 13.3227 17.931 12.6617 17.4463 12.1729C16.9616 11.6841 16.3029 11.4074 15.6145 11.4036C15.2209 11.4126 14.8342 11.5086 14.482 11.6847C14.1299 11.8608 13.8211 12.1127 13.5778 12.4222V11.2667H11.2667V18.2ZM7.80005 11.2667V18.2H10.1112V11.2667H7.80005ZM8.1385 9.77266C8.35521 9.98936 8.64913 10.1111 8.9556 10.1111C9.26208 10.1111 9.556 9.98936 9.77271 9.77266C9.98941 9.55595 10.1112 9.26203 10.1112 8.95555C10.1112 8.64908 9.98941 8.35516 9.77271 8.13845C9.556 7.92174 9.26208 7.8 8.9556 7.8C8.64913 7.8 8.35521 7.92174 8.1385 8.13845C7.92179 8.35516 7.80005 8.64908 7.80005 8.95555C7.80005 9.26203 7.92179 9.55595 8.1385 9.77266Z" fill="white"/>
</svg>
