<svg width="26" height="26" viewBox="0 0 26 26" fill="none" xmlns="http://www.w3.org/2000/svg">
<path fill-rule="evenodd" clip-rule="evenodd" d="M4 0C1.79086 0 0 1.79086 0 4V22C0 24.2091 1.79086 26 4 26H22C24.2091 26 26 24.2091 26 22V4C26 1.79086 24.2091 0 22 0H4ZM17.9678 10.7324C17.9678 10.6191 17.9678 10.5057 17.9596 10.3917C18.4584 10.0166 18.8919 9.55774 19.2417 9.03449C18.7733 9.24458 18.2769 9.38162 17.769 9.44105C18.303 9.11535 18.7028 8.60109 18.8937 7.99462C18.3924 8.30047 17.8432 8.51495 17.2705 8.62857C16.8031 8.11646 16.1382 7.79981 15.4016 7.79981C15.0656 7.79963 14.7329 7.8674 14.4225 7.99923C14.1121 8.13106 13.83 8.32437 13.5924 8.5681C13.3549 8.81184 13.1665 9.10122 13.038 9.41971C12.9095 9.7382 12.8434 10.0795 12.8436 10.4242C12.8436 10.6275 12.8677 10.8302 12.9071 11.0256C11.8895 10.9723 10.8941 10.7003 9.98545 10.2272C9.07679 9.75416 8.27513 9.09053 7.63237 8.27934C7.41074 8.66897 7.28436 9.11593 7.28436 9.60329C7.28393 10.0358 7.38785 10.4617 7.58686 10.843C7.78588 11.2244 8.07379 11.5492 8.42491 11.7886C8.00578 11.7723 7.61015 11.6504 7.26912 11.4556V11.4882C7.26829 12.0946 7.47219 12.6825 7.84614 13.1521C8.22009 13.6216 8.74102 13.9438 9.32033 14.0638C9.10632 14.1205 8.8758 14.153 8.64655 14.153C8.48016 14.153 8.3214 14.1368 8.16327 14.1126C8.32761 14.6338 8.64648 15.0893 9.07536 15.4156C9.50423 15.7418 10.0217 15.9225 10.5555 15.9324C9.6497 16.6616 8.53096 17.0566 7.37962 17.0537C7.16561 17.0537 6.96747 17.0453 6.76172 17.0212C7.89465 17.7691 9.24095 18.1998 10.6901 18.1998C15.394 18.1998 17.9678 14.2019 17.9678 10.7324Z" fill="white"/>
</svg>
