<svg width="26" height="26" viewBox="0 0 26 26" fill="none" xmlns="http://www.w3.org/2000/svg">
<path fill-rule="evenodd" clip-rule="evenodd" d="M4 0C1.79086 0 0 1.79086 0 4V22C0 24.2091 1.79086 26 4 26H22C24.2091 26 26 24.2091 26 22V4C26 1.79086 24.2091 0 22 0H4ZM15.8059 7.88704C15.0414 7.84342 14.1075 7.82161 13.0044 7.82161C11.945 7.778 11.0112 7.7998 10.2029 7.88704C9.39472 7.97427 8.76125 8.06151 8.30253 8.14874C7.84381 8.23598 7.45608 8.4159 7.13934 8.68851C6.82261 8.96111 6.62055 9.27189 6.53317 9.62083C6.4458 9.96977 6.36934 10.4387 6.30381 11.0275C6.23828 11.6163 6.2219 12.276 6.25466 13.0066C6.28743 13.7372 6.30381 14.3969 6.30381 14.9858C6.30381 15.5746 6.38027 16.0435 6.53317 16.3924C6.68608 16.7414 6.88814 17.0467 7.13934 17.3084C7.39055 17.5701 7.77828 17.7555 8.30253 17.8645C8.82678 17.9735 9.46025 18.0608 10.2029 18.1262C10.9456 18.1916 11.8795 18.2134 13.0044 18.1916C14.1294 18.1698 15.0632 18.148 15.8059 18.1262C16.5486 18.1044 17.1821 18.0172 17.7063 17.8645C18.2306 17.7118 18.6183 17.5265 18.8695 17.3084C19.1207 17.0903 19.3228 16.785 19.4757 16.3924C19.6286 15.9999 19.7105 15.531 19.7214 14.9858L19.7542 13.0066C19.7651 12.2324 19.7542 11.5727 19.7214 11.0275C19.6887 10.4823 19.6067 10.0134 19.4757 9.62083C19.3446 9.22827 19.1426 8.9175 18.8695 8.68851C18.5965 8.45952 18.2087 8.2796 17.7063 8.14874C17.2039 8.01789 16.5704 7.93066 15.8059 7.88704ZM15.3636 13.0066C15.3636 13.0939 15.298 13.1702 15.167 13.2356L12.1361 14.6423C12.016 14.6968 11.9068 14.6968 11.8085 14.6423C11.7102 14.5877 11.661 14.4842 11.661 14.3315V11.6817C11.6719 11.5182 11.7211 11.4091 11.8085 11.3546C11.8958 11.3001 12.0051 11.3055 12.1361 11.371L15.167 12.7776C15.298 12.8431 15.3636 12.9194 15.3636 13.0066Z" fill="white"/>
</svg>
